<?xml version="1.0" encoding="UTF-8"?>
<svg xmlns="http://www.w3.org/2000/svg" width="14px" height="16px" viewBox="0 0 14 16" version="1.1">
<g><path style=" stroke:none;fill-rule:nonzero;fill:#516278;fill-opacity:1;" d="M 5.953125 2.089844 L 6.648438 1.398438 C 6.941406 1.101562 7.414062 1.101562 7.707031 1.398438 L 13.78125 7.46875 C 14.074219 7.761719 14.074219 8.238281 13.78125 8.527344 L 7.707031 14.601562 C 7.414062 14.898438 6.9375 14.898438 6.648438 14.601562 L 5.953125 13.910156 C 5.65625 13.613281 5.664062 13.128906 5.964844 12.835938 L 9.730469 9.25 L 0.75 9.25 C 0.335938 9.25 0 8.914062 0 8.5 L 0 7.5 C 0 7.085938 0.335938 6.75 0.75 6.75 L 9.730469 6.75 L 5.964844 3.164062 C 5.660156 2.871094 5.652344 2.386719 5.953125 2.089844 Z M 5.953125 2.089844 "/></g></svg>